<?xml version="1.0" standalone="no"?><!DOCTYPE svg PUBLIC "-//W3C//DTD SVG 1.1//EN" "http://www.w3.org/Graphics/SVG/1.1/DTD/svg11.dtd"><svg t="1698065018471" class="icon" viewBox="0 0 1024 1024" version="1.1" xmlns="http://www.w3.org/2000/svg" p-id="4824" xmlns:xlink="http://www.w3.org/1999/xlink" width="32" height="32"><path d="M856.8 744.48l-24.48 33.44-73.76-40.16-241.6 141.6c-5.12 3.84-11.36 5.76-17.6 5.76-6.4 0-12.8-2.08-18.24-6.08l-124.64-69.12-52-29.76 21.12-11.36V468.48c0.16-6.72 1.76-13.44 4.96-19.36 4.8-6.88 10.88-12.16 18.08-15.52l1.28-0.64 211.36-120.96 28.64-16.32v-26.56l42.88 25.12v1.44l141.44 82.88c5.76 6.56 9.28 16.16 9.28 24v300.32l73.28 41.6z" fill="#B3C8FE" p-id="4825"></path><path d="M783.52 702.88V402.56c0-7.84-3.52-17.44-9.28-24-2.72-3.52-6.24-6.08-10.08-7.36l-131.36-76.96-42.88-25.12-67.36-39.36V138.88h-42.88v90.88L238.4 367.68c-7.2 3.36-13.28 8.64-18.08 15.52-3.2 5.92-4.8 12.64-4.96 19.36v300.32l-80.32 43.36 26.56 37.28 75.04-42.24 67.84 38.88 52 29.76 124.64 69.12c5.44 4 11.84 6.08 18.24 6.08 6.24 0 12.48-1.92 17.6-5.76l241.6-141.6 73.76 40.16 24.48-33.44-73.28-41.6z m-312.8 112.96l-145.12-78.56-58.08-31.52-3.2-255.68 61.28 35.04 145.12 83.2v247.52z m27.2-300.16l-148-82.72-60.32-33.76 211.36-121.44 60.32 34.24 151.04 85.6-214.4 118.08z m236.8 178.24l-206.56 120V568.48l208.16-116.64-1.6 242.08z" fill="#5186F5" p-id="4826"></path></svg>