<svg width="24" height="24" viewBox="0 0 24 24" fill="none" xmlns="http://www.w3.org/2000/svg">
<g id="Frame">
<path id="Vector" d="M21.8877 4.65588C22.3677 4.65588 22.7117 4.79188 22.9197 5.06388C23.1277 5.33588 23.2317 5.71988 23.2317 6.21588V10.8959H1.15173V6.14388C1.15173 5.67988 1.26773 5.31588 1.49973 5.05188C1.73173 4.78788 2.07173 4.65588 2.51973 4.65588H21.8877ZM1.15173 11.7839H23.2317V14.1359C23.2317 14.4239 23.1677 14.6839 23.0397 14.9159C22.9117 15.1479 22.7437 15.3479 22.5357 15.5159C22.3277 15.6839 22.0877 15.8119 21.8157 15.8999C21.5437 15.9879 21.2637 16.0319 20.9757 16.0319H3.40773C3.32773 16.0319 3.24773 16.0279 3.16773 16.0199C3.08773 16.0119 3.00773 15.9999 2.92773 15.9839C2.95973 16.1599 3.02373 16.3759 3.11973 16.6319C3.21573 16.8879 3.39173 17.1519 3.64773 17.4239C3.83973 17.6319 4.05173 17.8199 4.28373 17.9879C4.51573 18.1559 4.73973 18.2999 4.95573 18.4199C5.17173 18.5399 5.36373 18.6359 5.53173 18.7079C5.69973 18.7799 5.81573 18.8239 5.87973 18.8399C6.18373 18.9199 6.31173 19.0639 6.26373 19.2719C6.21573 19.4959 6.01573 19.5519 5.66373 19.4399C5.58373 19.4239 5.44373 19.3759 5.24373 19.2959C5.04373 19.2159 4.81573 19.1079 4.55973 18.9719C4.30373 18.8359 4.03573 18.6759 3.75573 18.4919C3.47573 18.3079 3.22373 18.0959 2.99973 17.8559C2.82373 17.6639 2.67973 17.4639 2.56773 17.2559C2.45573 17.0479 2.36773 16.8479 2.30373 16.6559C2.23973 16.4639 2.19173 16.2839 2.15973 16.1159C2.12773 15.9479 2.11173 15.8079 2.11173 15.6959C1.82373 15.5359 1.59173 15.3239 1.41573 15.0599C1.23973 14.7959 1.15173 14.4879 1.15173 14.1359V11.7839ZM2.71173 14.8079H21.6477V13.6559H2.71173V14.8079Z" fill="#355BAD"/>
</g>
</svg>
