<svg width="16" height="16" viewBox="0 0 16 16" fill="none" xmlns="http://www.w3.org/2000/svg">
<g id="bubble-chart-fill">
<path id="Vector" d="M10.6666 10.6667C11.7712 10.6667 12.6666 11.5621 12.6666 12.6667C12.6666 13.7713 11.7712 14.6667 10.6666 14.6667C9.56199 14.6667 8.66659 13.7713 8.66659 12.6667C8.66659 11.5621 9.56199 10.6667 10.6666 10.6667ZM3.99992 8.00004C5.47268 8.00004 6.66659 9.19397 6.66659 10.6667C6.66659 12.1394 5.47268 13.3334 3.99992 13.3334C2.52716 13.3334 1.33325 12.1394 1.33325 10.6667C1.33325 9.19397 2.52716 8.00004 3.99992 8.00004ZM9.66659 1.33337C11.6917 1.33337 13.3333 2.97499 13.3333 5.00004C13.3333 7.02511 11.6917 8.66671 9.66659 8.66671C7.64152 8.66671 5.99992 7.02511 5.99992 5.00004C5.99992 2.97499 7.64152 1.33337 9.66659 1.33337Z" fill="black" fill-opacity="0.65"/>
</g>
</svg>
