<?xml version="1.0" standalone="no"?><!DOCTYPE svg PUBLIC "-//W3C//DTD SVG 1.1//EN" "http://www.w3.org/Graphics/SVG/1.1/DTD/svg11.dtd"><svg t="1695612037840" class="icon" viewBox="0 0 1024 1024" version="1.1" xmlns="http://www.w3.org/2000/svg" p-id="10001" xmlns:xlink="http://www.w3.org/1999/xlink" width="200" height="200"><path d="M918.775866 304.093559h-43.355111a43.467663 43.467663 0 0 0-43.400132 43.355111v86.867795a43.400132 43.400132 0 0 0 39.303232 43.107496v319.310618h-128.309519V83.01851C743.014336 37.20976 715.236451 0 680.998069 0H215.234516C181.063665 0 153.218249 37.20976 153.218249 83.01851v857.96298H97.639968a41.936953 41.936953 0 0 0 0 83.01851h718.083095a41.959464 41.959464 0 0 0 0-83.01851H743.126888v-88.983776h128.309519c54.700374 0 54.700374-15.036975 54.700373-83.131062v-291.960431a43.242559 43.242559 0 0 0 36.15177-42.769839v-86.755243a43.467663 43.467663 0 0 0-43.512684-43.28758zM305.208752 201.941174a25.97705 25.97705 0 0 1 27.192614-24.401319h245.116201a25.97705 25.97705 0 0 1 27.260146 24.401319v85.179512a26.044581 26.044581 0 0 1-27.260146 24.44634H332.423877a25.97705 25.97705 0 0 1-27.192614-24.44634z m257.924643 194.175071l-97.987953 191.136162 147.308331 43.467663-280.637678 207.501253 109.918487-171.529567-140.397626-44.750758z" p-id="10002"></path></svg>