<?xml version="1.0" standalone="no"?><!DOCTYPE svg PUBLIC "-//W3C//DTD SVG 1.1//EN" "http://www.w3.org/Graphics/SVG/1.1/DTD/svg11.dtd"><svg t="1697009420546" class="icon" viewBox="0 0 1024 1024" version="1.1" xmlns="http://www.w3.org/2000/svg" p-id="10868" xmlns:xlink="http://www.w3.org/1999/xlink" width="32" height="32"><path d="M526.549333 129.664c37.973333-8.576 75.306667 16.938667 83.456 57.002667 1.024 5.12 1.536 10.325333 1.536 15.530666V230.4h124.458667c40.704 0 72.405333 36.352 74.538667 80.554667L810.666667 315.733333v477.866667h-49.792V315.733333c0-18.432-10.624-32.298667-22.485334-33.962666L736 281.6h-124.458667v540.202667c0 39.765333-29.610667 72.234667-66.858666 74.112l-3.413334 0.085333c-4.949333 0-9.898667-0.554667-14.72-1.664l-257.706666-58.282667c-32.341333-7.338667-55.509333-37.546667-55.509334-72.533333V260.48c0-34.986667 23.168-65.194667 55.552-72.533333l257.706667-58.282667z m34.005334 66.218667a22.826667 22.826667 0 0 0-26.581334-16.128l-252.714666 58.026666a24.277333 24.277333 0 0 0-18.133334 24.021334v500.394666a24.32 24.32 0 0 0 18.133334 24.064l252.714666 58.026667a21.888 21.888 0 0 0 4.821334 0.512c12.714667 0 22.997333-11.008 22.997333-24.618667V203.818667a26.624 26.624 0 0 0-0.512-5.12l-0.725333-2.816zM512 460.8c12.8 0 23.296 8.192 24.746667 18.773333l0.128 2.56v85.333334c0 11.733333-11.136 21.333333-24.874667 21.333333-12.8 0-23.296-8.277333-24.746667-18.901333l-0.128-2.474667v-85.333333c0-11.776 11.136-21.333333 24.874667-21.333334z" fill="#409EFF" p-id="10869"></path></svg>