<?xml version="1.0" standalone="no"?><!DOCTYPE svg PUBLIC "-//W3C//DTD SVG 1.1//EN" "http://www.w3.org/Graphics/SVG/1.1/DTD/svg11.dtd"><svg t="1692673526027" class="icon" viewBox="0 0 1024 1024" version="1.1" xmlns="http://www.w3.org/2000/svg" p-id="10308" xmlns:xlink="http://www.w3.org/1999/xlink" width="200" height="200"><path d="M121.491525 381.830508m-52.067796 0a52.067797 52.067797 0 1 0 104.135593 0 52.067797 52.067797 0 1 0-104.135593 0Z" p-id="10309" fill="#ffffff"></path><path d="M512 208.271186m-52.067797 0a52.067797 52.067797 0 1 0 104.135594 0 52.067797 52.067797 0 1 0-104.135594 0Z" p-id="10310" fill="#ffffff"></path><path d="M277.694915 208.271186m-43.38983 0a43.389831 43.389831 0 1 0 86.779661 0 43.389831 43.389831 0 1 0-86.779661 0Z" p-id="10311" fill="#ffffff"></path><path d="M746.305085 216.949153m-43.389831 0a43.389831 43.389831 0 1 0 86.779661 0 43.389831 43.389831 0 1 0-86.779661 0Z" p-id="10312" fill="#ffffff"></path><path d="M911.186441 190.915254m-34.711865 0a34.711864 34.711864 0 1 0 69.423729 0 34.711864 34.711864 0 1 0-69.423729 0Z" p-id="10313" fill="#ffffff"></path><path d="M104.135593 199.59322m-34.711864 0a34.711864 34.711864 0 1 0 69.423729 0 34.711864 34.711864 0 1 0-69.423729 0Z" p-id="10314" fill="#ffffff"></path><path d="M512 34.711864m-34.711864 0a34.711864 34.711864 0 1 0 69.423728 0 34.711864 34.711864 0 1 0-69.423728 0Z" p-id="10315" fill="#ffffff"></path><path d="M329.762712 60.745763m-26.033898 0a26.033898 26.033898 0 1 0 52.067796 0 26.033898 26.033898 0 1 0-52.067796 0Z" p-id="10316" fill="#ffffff"></path><path d="M676.881356 86.779661m-26.033898 0a26.033898 26.033898 0 1 0 52.067796 0 26.033898 26.033898 0 1 0-52.067796 0Z" p-id="10317" fill="#ffffff"></path><path d="M911.186441 373.152542m-52.067797 0a52.067797 52.067797 0 1 0 104.135593 0 52.067797 52.067797 0 1 0-104.135593 0Z" p-id="10318" fill="#ffffff"></path><path d="M576.737627 569.361356a66.907119 66.907119 0 0 0-52.067796 22.389152q-19.872542 22.302373-19.959323 67.341017t20.48 67.167458a70.465085 70.465085 0 0 0 104.135594 0c12.84339-14.665763 19.265085-37.662373 19.265084-67.861695s-6.508475-52.067797-19.612203-66.993898a66.733559 66.733559 0 0 0-52.241356-22.042034z" p-id="10319" fill="#ffffff"></path><path d="M850.440678 491.693559a208.271186 208.271186 0 0 0-329.762712-157.505084A208.271186 208.271186 0 0 0 191.696271 485.966102 216.949153 216.949153 0 0 0 251.661017 911.186441a212.52339 212.52339 0 0 0 26.988475-1.735594 295.050847 295.050847 0 0 0 466.701016 0 212.52339 212.52339 0 0 0 26.988475 1.735594 216.949153 216.949153 0 0 0 78.101695-419.492882zM394.673898 773.380339a111.251525 111.251525 0 0 1-69.423729 20.740339 112.292881 112.292881 0 0 1-85.477966-35.492881q-33.496949-35.579661-33.410169-97.106441 0-65.084746 33.670508-101.098305a115.24339 115.24339 0 0 1 88.428475-36.100339 108.648136 108.648136 0 0 1 78.101695 28.290169 103.354576 103.354576 0 0 1 26.728135 48.075933l-52.067796 12.496271a53.890169 53.890169 0 0 0-55.018305-43.389831A59.183729 59.183729 0 0 0 278.823051 590.101695Q260.338983 611.015593 260.338983 657.616271c0 32.976271 5.987797 56.493559 17.789831 70.465085a57.795254 57.795254 0 0 0 46.340339 21.000678 52.848814 52.848814 0 0 0 36.100339-13.277288A77.494237 77.494237 0 0 0 382.611525 694.237288L433.898305 709.944407a114.809492 114.809492 0 0 1-39.224407 63.435932z m274.05017-14.926102q-34.711864 35.666441-91.812882 35.666441t-92.593898-35.492881q-34.277966-35.579661-34.711864-97.800678a165.488814 165.488814 0 0 1 11.888813-66.907119A123.053559 123.053559 0 0 1 485.966102 558.16678a101.271864 101.271864 0 0 1 33.757288-23.517288 143.533559 143.533559 0 0 1 56.23322-10.32678A122.706441 122.706441 0 0 1 668.20339 560.075932q34.711864 35.84 34.711864 99.449492t-34.191186 98.928813zM840.721356 815.728814H731.986441a68.469153 68.469153 0 0 1 11.368135-30.286102 151.604068 151.604068 0 0 1 35.579661-33.496949 110.383729 110.383729 0 0 0 20.393221-17.96339 20.219661 20.219661 0 0 0 4.425762-11.715254 13.537627 13.537627 0 0 0-4.425762-10.153221 15.186441 15.186441 0 0 0-11.107797-4.252203 15.533559 15.533559 0 0 0-11.281356 4.338983 27.075254 27.075254 0 0 0-5.987797 15.44678l-36.273898-2.950509a59.270508 59.270508 0 0 1 7.81017-23.864407 36.621017 36.621017 0 0 1 16.054237-13.190508 73.155254 73.155254 0 0 1 28.724068-4.599322 82.00678 82.00678 0 0 1 29.765423 4.338983 36.273898 36.273898 0 0 1 16.748475 13.450847 34.711864 34.711864 0 0 1 6.074576 20.219661 41.567458 41.567458 0 0 1-6.942373 22.736272 96.498983 96.498983 0 0 1-25.42644 23.864406c-7.289492 5.03322-12.149153 8.677966-14.665763 10.587119s-5.293559 4.686102-8.677966 7.983729h56.580339z" p-id="10320" fill="#ffffff"></path></svg>