<?xml version="1.0" standalone="no"?><!DOCTYPE svg PUBLIC "-//W3C//DTD SVG 1.1//EN" "http://www.w3.org/Graphics/SVG/1.1/DTD/svg11.dtd"><svg t="1690529810865" class="icon" viewBox="0 0 1024 1024" version="1.1" xmlns="http://www.w3.org/2000/svg" p-id="10617" xmlns:xlink="http://www.w3.org/1999/xlink" width="200" height="200"><path d="M414.64 335.28m48 0l382.12 0q48 0 48 48l0 0q0 48-48 48l-382.12 0q-48 0-48-48l0 0q0-48 48-48Z" fill="#1AD8E2" p-id="10618"></path><path d="M255.52 513.5a129.11 129.11 0 1 1 129.11-129.11A129.25 129.25 0 0 1 255.52 513.5z m0-162.22a33.11 33.11 0 1 0 33.11 33.11 33.14 33.14 0 0 0-33.11-33.11z" fill="#2C77E5" p-id="10619"></path><path d="M604.52 733.75m-48 0l-382.12 0q-48 0-48-48l0 0q0-48 48-48l382.12 0q48 0 48 48l0 0q0 48-48 48Z" fill="#1AD8E2" p-id="10620"></path><path d="M763.65 555.53a129.11 129.11 0 1 1-129.11 129.11 129.26 129.26 0 0 1 129.11-129.11z m0 162.22a33.11 33.11 0 1 0-33.11-33.11 33.14 33.14 0 0 0 33.11 33.11z" fill="#2C77E5" p-id="10621"></path></svg>