<svg width="16" height="16" viewBox="0 0 16 16" fill="none" xmlns="http://www.w3.org/2000/svg">
<g id="contrast-drop-2-line">
<path id="Vector" d="M8 2.06494L4.70017 5.36477C2.87772 7.18724 2.87772 10.142 4.70017 11.9644C6.52261 13.7869 9.4774 13.7869 11.2998 11.9644C13.1223 10.142 13.1223 7.18724 11.2998 5.36477L8 2.06494ZM8 0.179321L12.2427 4.42196C14.5858 6.76511 14.5858 10.5641 12.2427 12.9072C9.89947 15.2504 6.10051 15.2504 3.75736 12.9072C1.41421 10.5641 1.41421 6.76511 3.75736 4.42196L8 0.179321ZM4.66667 8.66457H11.3333C11.3333 10.5056 9.84093 11.9979 8 11.9979C6.15905 11.9979 4.66667 10.5056 4.66667 8.66457Z" fill="white"/>
</g>
</svg>
