<?xml version="1.0" standalone="no"?><!DOCTYPE svg PUBLIC "-//W3C//DTD SVG 1.1//EN" "http://www.w3.org/Graphics/SVG/1.1/DTD/svg11.dtd"><svg t="1690271090912" class="icon" viewBox="0 0 1072 1024" version="1.1" xmlns="http://www.w3.org/2000/svg" p-id="4211" id="mx_n_1690271090914" xmlns:xlink="http://www.w3.org/1999/xlink" width="209.375" height="200"><path d="M198.119619 97.52381h725.333333C952.027429 97.52381 975.238095 119.954286 975.238095 147.504762V293.546667c0 27.599238-23.210667 49.980952-51.833905 49.980952H198.119619C169.545143 343.527619 146.285714 321.145905 146.285714 293.546667V147.504762C146.285714 119.905524 169.496381 97.52381 198.119619 97.52381z m77.287619 98.401523a25.063619 25.063619 0 0 0-25.502476 24.576c0 13.604571 11.410286 24.624762 25.502476 24.624762h156.233143a25.063619 25.063619 0 0 0 25.502476-24.624762 25.063619 25.063619 0 0 0-25.502476-24.576H275.407238z m-77.287619 193.097143h725.333333c28.623238 0 51.785143 22.430476 51.785143 49.980953v146.041904c0 27.599238-23.210667 49.93219-51.833905 49.932191H198.119619c-28.574476 0-51.785143-22.332952-51.785143-49.932191V439.003429c0-27.599238 23.210667-49.980952 51.833905-49.980953z m0 291.498667h725.333333c28.623238 0 51.785143 22.381714 51.785143 49.93219v146.090667C975.238095 904.045714 952.027429 926.47619 923.40419 926.47619H198.119619C169.545143 926.47619 146.285714 904.094476 146.285714 876.495238V730.453333c0-27.599238 23.210667-49.980952 51.833905-49.980952z m77.287619-181.930667a25.063619 25.063619 0 0 0-25.502476 24.576c0 13.604571 11.410286 24.624762 25.502476 24.624762h156.233143a25.063619 25.063619 0 0 0 25.502476-24.624762 25.063619 25.063619 0 0 0-25.502476-24.576H275.407238z" p-id="4212"></path></svg>