<?xml version="1.0" standalone="no"?><!DOCTYPE svg PUBLIC "-//W3C//DTD SVG 1.1//EN" "http://www.w3.org/Graphics/SVG/1.1/DTD/svg11.dtd"><svg t="1697009416902" class="icon" viewBox="0 0 1024 1024" version="1.1" xmlns="http://www.w3.org/2000/svg" p-id="10714" xmlns:xlink="http://www.w3.org/1999/xlink" width="32" height="32"><path d="M219.52 0h585.173333c96.853333 0.213333 176.64 75.52 182.613334 172.16l0.426666 10.666667v658.346666a183.296 183.296 0 0 1-172.16 182.613334l-11.093333 0.213333H219.52c-96.853333-0.213333-176.853333-75.52-182.613333-172.16l-0.426667-10.666667V182.826667A183.296 183.296 0 0 1 208.64 0.213333l10.88-0.213333h585.173333-585.173333z m584.96 73.173333H219.52c-57.173333 0-104.533333 44.16-109.226667 100.266667l-0.64 9.386667v658.346666c0 57.173333 44.16 104.533333 100.266667 109.226667l9.386667 0.426667h585.173333c57.173333 0 104.32-44.16 109.226667-100.266667l0.426666-9.386667V182.826667c0-57.173333-44.16-104.533333-100.266666-109.226667l-9.386667-0.426667zM768 365.653333c18.133333 0 33.28 13.226667 36.053333 30.72l0.426667 5.973334v219.52c0 18.986667-14.506667 34.986667-33.493333 36.693333-18.986667 1.493333-36.053333-11.733333-39.04-30.72l-0.426667-5.973333v-219.733334c0-20.053333 16.213333-36.48 36.48-36.48z m0 0" fill="#999999" p-id="10715"></path></svg>