<?xml version="1.0" standalone="no"?><!DOCTYPE svg PUBLIC "-//W3C//DTD SVG 1.1//EN" "http://www.w3.org/Graphics/SVG/1.1/DTD/svg11.dtd"><svg t="1690271002658" class="icon" viewBox="0 0 1024 1024" version="1.1" xmlns="http://www.w3.org/2000/svg" p-id="3781" xmlns:xlink="http://www.w3.org/1999/xlink" width="200" height="200"><path d="M779.073919 133.586954H667.784787V66.793477C667.784787 29.997071 637.887706 0 600.991309 0H423.008691c-36.796407 0-66.793477 29.997071-66.793478 66.793477v66.793477H244.926081c-36.796407 0-66.793477 29.997071-66.793477 66.793478v756.826091c0 36.796407 29.997071 66.793477 66.793477 66.793477h534.247828c36.796407 0 66.793477-29.997071 66.793477-66.793477v-756.926082c-0.09999-36.796407-29.997071-66.693487-66.893467-66.693487zM400.710868 66.793477c0-12.298799 9.999024-22.297822 22.297823-22.297822h177.982618c12.298799 0 22.297822 9.999024 22.297823 22.297822v64.593692H400.710868V66.793477z m400.660873 890.313056c0 12.298799-9.999024 22.297822-22.297822 22.297822H244.926081c-12.298799 0-22.297822-9.999024-22.297822-22.297822V200.280441c0-12.298799 9.999024-22.297822 22.297822-22.297822h534.247828c12.298799 0 22.297822 9.999024 22.297822 22.297822v756.826092z" fill="" p-id="3782"></path><path d="M645.586954 489.652182H378.413046c-12.198809 0-22.297822 9.999024-22.297823 22.297823 0 12.198809 9.999024 22.297822 22.297823 22.297822h267.073918c12.198809 0 22.297822-9.999024 22.297823-22.297822 0-12.198809-9.999024-22.297822-22.197833-22.297823zM645.586954 667.734792H378.413046c-12.198809 0-22.297822 9.999024-22.297823 22.297822s9.999024 22.297822 22.297823 22.297822h267.073918c12.198809 0 22.297822-9.999024 22.297823-22.297822s-9.999024-22.297822-22.197833-22.297822zM645.586954 845.817401H378.413046c-12.198809 0-22.297822 9.999024-22.297823 22.297822s9.999024 22.297822 22.297823 22.297823h267.073918c12.198809 0 22.297822-9.999024 22.297823-22.297823s-9.999024-22.297822-22.197833-22.297822zM645.586954 311.669564H378.413046c-12.198809 0-22.297822 9.999024-22.297823 22.297822 0 12.198809 9.999024 22.297822 22.297823 22.297822h267.073918c12.198809 0 22.297822-9.999024 22.297823-22.297822s-9.999024-22.297822-22.197833-22.297822z" fill="" p-id="3783"></path></svg>