<?xml version="1.0" standalone="no"?><!DOCTYPE svg PUBLIC "-//W3C//DTD SVG 1.1//EN" "http://www.w3.org/Graphics/SVG/1.1/DTD/svg11.dtd"><svg t="1690276253998" class="icon" viewBox="0 0 1024 1024" version="1.1" xmlns="http://www.w3.org/2000/svg" p-id="2004" xmlns:xlink="http://www.w3.org/1999/xlink" width="200" height="200"><path d="M768 682.666667h-85.333333v-128h213.333333v128h-85.333333v128h-42.666667v-128z m85.333333-170.666667h-42.666666V298.666667H170.666667v469.333333h384v42.666667H128V256h725.333333v256z m-298.666666 85.333333v42.666667H170.666667v-42.666667h384z m-384-170.666666h640v42.666666H170.666667v-42.666666z m42.666666-85.333334h42.666667v42.666667H213.333333V341.333333z m85.333334 0h42.666666v42.666667H298.666667V341.333333z m-85.333334 170.666667h42.666667v42.666667H213.333333v-42.666667z m85.333334 0h42.666666v42.666667H298.666667v-42.666667z m-85.333334 170.666667h42.666667v42.666666H213.333333v-42.666666z m85.333334 0h42.666666v42.666666H298.666667v-42.666666z m384 85.333333h42.666666v42.666667h-42.666666v-42.666667z m-85.333334 0h42.666667v42.666667h-42.666667v-42.666667z m128-170.666667v42.666667h128v-42.666667h-128z" fill="#444444" p-id="2005"></path></svg>