<?xml version="1.0" standalone="no"?><!DOCTYPE svg PUBLIC "-//W3C//DTD SVG 1.1//EN" "http://www.w3.org/Graphics/SVG/1.1/DTD/svg11.dtd"><svg t="1690765752317" class="icon" viewBox="0 0 1024 1024" version="1.1" xmlns="http://www.w3.org/2000/svg" p-id="10089" xmlns:xlink="http://www.w3.org/1999/xlink" width="200" height="200"><path d="M190.171 73.143c-10.971 0-22.674 4.388-30.72 13.166-8.045 8.777-13.165 19.748-13.165 30.72V906.97c0 10.972 4.388 22.675 13.165 30.72 8.778 8.778 19.749 13.166 30.72 13.166H833.83c10.971 0 22.674-4.388 30.72-13.166 8.777-8.777 13.165-19.748 13.165-30.72V292.645L658.286 73.143H190.17z" fill="#2BC56E" p-id="10090"></path><path d="M877.714 292.645H699.465a39.497 39.497 0 0 1-28.818-12.288 39.497 39.497 0 0 1-12.361-28.819V73.143l219.428 219.502z" fill="#FFFFFF" fill-opacity=".698" p-id="10091"></path><path d="M426.862 731.429l74.02-125.514L570.88 731.43h93.477L544.622 540.672l112.786-177.737H568.32L500.81 482.67l-65.756-119.735h-91.94L455.898 543.67 337.408 731.429z" fill="#FFFFFF" p-id="10092"></path></svg>