<?xml version="1.0" standalone="no"?><!DOCTYPE svg PUBLIC "-//W3C//DTD SVG 1.1//EN" "http://www.w3.org/Graphics/SVG/1.1/DTD/svg11.dtd"><svg t="1698107964328" class="icon" viewBox="0 0 1024 1024" version="1.1" xmlns="http://www.w3.org/2000/svg" p-id="1895" xmlns:xlink="http://www.w3.org/1999/xlink" width="32" height="32"><path d="M428.9024 309.0432m-224.8192 0a224.8192 224.8192 0 1 0 449.6384 0 224.8192 224.8192 0 1 0-449.6384 0Z" fill="#F66A68" p-id="1896"></path><path d="M886.8352 596.6336h-207.5136v-70.6048c0-22.9888 18.7392-41.728 41.728-41.728h60.1088c22.9888 0 41.728 18.7392 41.728 41.728 0 14.1312 11.4688 25.6 25.6 25.6s25.6-11.4688 25.6-25.6c0-51.2512-41.6768-92.928-92.928-92.928h-60.1088c-51.2512 0-92.928 41.6768-92.928 92.928v70.6048h-26.4704c-40.0896 0-72.5504 32.4608-72.5504 72.5504v181.248c0 40.0896 32.4608 72.5504 72.5504 72.5504h285.184c40.0896 0 72.5504-32.4608 72.5504-72.5504v-181.248c0-40.0384-32.4608-72.5504-72.5504-72.5504z m-110.1312 174.6432v69.9904c0 14.1312-11.4688 25.6-25.6 25.6s-25.6-11.4688-25.6-25.6v-69.9904c-14.592-8.7552-24.4224-24.6272-24.4224-42.9056 0-27.5968 22.3744-50.0224 50.0224-50.0224s50.0224 22.3744 50.0224 50.0224c0 18.2784-9.8304 34.2016-24.4224 42.9056zM467.7632 839.7312v-48.5376-105.3184c0-44.2368 14.9504-75.008 33.3824-96.1024H255.5392c-108.5952 0-196.608 88.0128-196.608 196.608v77.8752c0 32.512 26.3168 58.8288 58.8288 58.8288h378.368c-18.5856-12.3904-28.3648-55.9104-28.3648-83.3536z" fill="#F5504E" p-id="1897"></path><path d="M679.3216 596.6336v-70.6048c0-22.9888 18.7392-41.728 41.728-41.728h60.1088c22.9888 0 41.728 18.7392 41.728 41.728 0 14.1312 11.4688 25.6 25.6 25.6s25.6-11.4688 25.6-25.6c0-51.2512-41.6768-92.928-92.928-92.928h-60.1088c-51.2512 0-92.928 41.6768-92.928 92.928v70.6048h-26.4704c-40.0896 0-72.5504 32.4608-72.5504 72.5504v181.248c0 2.6624 0.1536 5.2736 0.4608 7.8336 71.8848-13.0048 138.3424-41.4208 195.9936-81.5616v-5.4784c-14.592-8.7552-24.4224-24.6272-24.4224-42.9056 0-27.5968 22.3744-50.0224 50.0224-50.0224 22.6816 0 41.7792 15.104 47.9232 35.7888a501.05344 501.05344 0 0 0 84.6336-117.504h-204.3904zM442.112 866.3552a506.368 506.368 0 0 0 27.9552-0.9216c-1.4848-9.1136-2.304-18.0224-2.304-25.7024v-48.5376-105.3184c0-44.2368 14.9504-75.008 33.3824-96.1024H255.5392c-80.896 0-150.3744 48.896-180.5312 118.7328 91.6992 97.6896 222.3616 158.5664 367.104 157.8496z" fill="#FF5A5A" p-id="1898"></path><path d="M653.6192 304.2816c-2.56-121.9584-102.144-220.1088-224.7168-220.1088-124.16 0-224.8704 100.6592-224.8704 224.8192 0 86.5792 48.9984 161.6896 120.7296 199.2704 135.5264-21.3504 252.7744-97.0752 328.8576-203.9808z" fill="#F67271" p-id="1899"></path><path d="M555.6736 123.392a223.9488 223.9488 0 0 0-126.7712-39.168c-124.16 0-224.8704 100.6592-224.8704 224.8192 0 9.3696 0.6656 18.5856 1.7408 27.648 147.9168-11.9296 275.712-94.3104 349.9008-213.2992z" fill="#F67B7A" p-id="1900"></path><path d="M679.3216 563.7632v-37.6832c0-22.9888 18.7392-41.728 41.728-41.728h32.512c12.1856-16.2304 23.3472-33.2288 33.4848-50.8928-1.9456-0.1024-3.8912-0.3072-5.888-0.3072h-60.1088c-51.2512 0-92.928 41.6768-92.928 92.928v70.6048h-26.4704c-34.1504 0-62.6688 23.6032-70.4 55.3472a501.62688 501.62688 0 0 0 148.0704-88.2688zM255.5392 589.7216c-46.6944 0-89.5488 16.3328-123.2896 43.52 67.328 33.1776 143.2064 51.712 223.3856 51.3536 38.8096-0.2048 76.544-4.7616 112.7424-13.312 2.8672-36.5568 16.4352-62.8224 32.768-81.5616H255.5392z" fill="#F66A68" p-id="1901"></path></svg>