<?xml version="1.0" standalone="no"?><!DOCTYPE svg PUBLIC "-//W3C//DTD SVG 1.1//EN" "http://www.w3.org/Graphics/SVG/1.1/DTD/svg11.dtd"><svg t="1690439716269" class="icon" viewBox="0 0 1025 1024" version="1.1" xmlns="http://www.w3.org/2000/svg" p-id="33488" xmlns:xlink="http://www.w3.org/1999/xlink" width="200.1953125" height="200"><path d="M682.74209 382.294l274.204-273.635v154.737a22.756 22.756 0 0 0 22.756 23.894h16.498a22.187 22.187 0 0 0 23.893-21.05V23.895a21.618 21.618 0 0 0-5.689-16.497A22.187 22.187 0 0 0 1000.18209 0H760.11109a24.462 24.462 0 0 0-23.893 23.893v16.498a26.169 26.169 0 0 0 26.737 23.894h147.342l-270.79 273.066a31.858 31.858 0 0 0 0 44.942 31.858 31.858 0 0 0 44.942 0zM341.40909 640L64.36109 910.222V756.054a22.756 22.756 0 0 0-22.756-23.894H25.10709a22.187 22.187 0 0 0-23.893 21.05v242.914a21.618 21.618 0 0 0 5.689 16.498A22.187 22.187 0 0 0 22.26309 1024h239.502a24.462 24.462 0 0 0 23.893-23.893v-16.498a26.169 26.169 0 0 0-26.738-23.893H110.44109l273.067-277.049a31.858 31.858 0 0 0 0-44.942A31.289 31.289 0 0 0 341.40909 640z m682.666 346.453V755.485a22.187 22.187 0 0 0-23.893-21.05h-16.498a23.324 23.324 0 0 0-22.756 23.894v154.738L682.74209 640a31.858 31.858 0 0 0-44.942 44.943L910.29709 957.44h-147.91a26.169 26.169 0 0 0-26.738 23.893v16.498a25.031 25.031 0 0 0 23.893 23.893h240.07A21.049 21.049 0 0 0 1021.80109 998.4v-12.516zM113.85409 64.854h147.342a26.169 26.169 0 0 0 26.738-24.462V23.894A25.031 25.031 0 0 0 264.04009 0.001H22.26309A21.618 21.618 0 0 0 5.76509 7.397 21.618 21.618 0 0 0 0.07609 23.894V266.81a22.187 22.187 0 0 0 23.894 21.049h18.204a22.756 22.756 0 0 0 22.755-23.894V109.797l276.48 272.497a31.858 31.858 0 0 0 44.942-44.942z" p-id="33489"></path></svg>