<?xml version="1.0" standalone="no"?><!DOCTYPE svg PUBLIC "-//W3C//DTD SVG 1.1//EN" "http://www.w3.org/Graphics/SVG/1.1/DTD/svg11.dtd"><svg t="1690529705844" class="icon" viewBox="0 0 1024 1024" version="1.1" xmlns="http://www.w3.org/2000/svg" p-id="6042" xmlns:xlink="http://www.w3.org/1999/xlink" width="200" height="200"><path d="M422.4 992h-6.4c-6.4 0-179.2-38.4-256-192-57.6-96-51.2-224 6.4-371.2 6.4-12.8 19.2-19.2 32-19.2s25.6 6.4 32 19.2c6.4 6.4 12.8 19.2 19.2 32 12.8-64 38.4-140.8 89.6-179.2 51.2-44.8 57.6-89.6 25.6-204.8-6.4-12.8 0-25.6 6.4-38.4s19.2-12.8 32-12.8c0 0 236.8 51.2 313.6 288 19.2-19.2 51.2-38.4 83.2-44.8 12.8 0 25.6 6.4 32 12.8s6.4 25.6 6.4 32c0 0-12.8 38.4 0 96 19.2 32 108.8 204.8 44.8 364.8-32 89.6-115.2 160-230.4 198.4-12.8 6.4-32 0-38.4-12.8-6.4-12.8-6.4-32 0-44.8 0 0 25.6-32 19.2-76.8-6.4-51.2-44.8-108.8-115.2-166.4-12.8 25.6-38.4 57.6-64 96-32 51.2-44.8 83.2 0 172.8 6.4 12.8 6.4 25.6-6.4 38.4-6.4 12.8-19.2 12.8-25.6 12.8zM211.2 524.8c-32 96-25.6 179.2 6.4 243.2s96 108.8 140.8 128c-12.8-64-6.4-115.2 38.4-172.8 51.2-64 83.2-115.2 83.2-115.2 6.4-6.4 12.8-12.8 25.6-19.2 12.8 0 19.2 0 25.6 6.4 102.4 76.8 160 160 172.8 243.2v44.8c57.6-32 96-76.8 115.2-128 51.2-134.4-44.8-307.2-44.8-307.2s0-6.4-6.4-6.4c-6.4-25.6-12.8-51.2-12.8-70.4-12.8 19.2-25.6 38.4-25.6 44.8-6.4 12.8-19.2 25.6-38.4 19.2-19.2 0-25.6-12.8-32-32-12.8-172.8-140.8-249.6-211.2-281.6 12.8 76.8 12.8 153.6-70.4 211.2-51.2 38.4-70.4 172.8-70.4 211.2 0 12.8-6.4 25.6-19.2 32-12.8 6.4-25.6 6.4-32 0-19.2-12.8-32-32-44.8-51.2z" fill="#03B3BB" p-id="6043"></path></svg>