<?xml version="1.0" standalone="no"?><!DOCTYPE svg PUBLIC "-//W3C//DTD SVG 1.1//EN" "http://www.w3.org/Graphics/SVG/1.1/DTD/svg11.dtd"><svg t="1697082279709" class="icon" viewBox="0 0 1024 1024" version="1.1" xmlns="http://www.w3.org/2000/svg" p-id="2234" xmlns:xlink="http://www.w3.org/1999/xlink" width="32" height="32"><path d="M849.170732 0c97.404878 0 174.829268 77.42439 174.829268 174.829268v674.341464c0 97.404878-77.42439 174.829268-174.829268 174.829268H174.829268c-97.404878 0-174.829268-77.42439-174.829268-174.829268V174.829268c0-97.404878 77.42439-174.829268 174.829268-174.829268h674.341464z m-59.941464 249.756098h-499.512195v437.07317L249.756098 799.219512h124.878048l37.463415-97.404878V624.390244h257.24878v114.887805h-127.375609l29.970731 59.941463h217.287805V249.756098z m-122.380488 217.287804v94.907318H409.6v-94.907318h257.24878z m0-154.84878v94.907317H409.6v-94.907317h257.24878z" p-id="2235"></path></svg>