<?xml version="1.0" standalone="no"?><!DOCTYPE svg PUBLIC "-//W3C//DTD SVG 1.1//EN" "http://www.w3.org/Graphics/SVG/1.1/DTD/svg11.dtd"><svg t="1690363804084" class="icon" viewBox="0 0 1024 1024" version="1.1" xmlns="http://www.w3.org/2000/svg" p-id="1495" xmlns:xlink="http://www.w3.org/1999/xlink" width="200" height="200"><path d="M598 960c22 0 40-18 40-40V748c0-22-18-40-40-40H426c-22 0-40 18-40 40v172c0 22 18 40 40 40h172zM638 426c0-22-18-40-40-40H426c-22 0-40 18-40 40v172c0 22 18 40 40 40h172c22 0 40-18 40-40V426zM64 598c0 22 18 40 40 40h172c22 0 40-18 40-40V426c0-22-18-40-40-40H104c-22 0-40 18-40 40v172zM708 276c0 22 18 40 40 40h172c22 0 40-18 40-40V104c0-22-18-40-40-40H748c-22 0-40 18-40 40v172zM960 426c0-22-18-40-40-40H748c-22 0-40 18-40 40v172c0 22 18 40 40 40h172c22 0 40-18 40-40V426zM748 708c-22 0-40 18-40 40v172c0 22 18 40 40 40h172c22 0 40-18 40-40V748c0-22-18-40-40-40H748zM316 748c0-22-18-40-40-40H104c-22 0-40 18-40 40v172c0 22 18 40 40 40h172c22 0 40-18 40-40V748zM426 64c-22 0-40 18-40 40v172c0 22 18 40 40 40h172c22 0 40-18 40-40V104c0-22-18-40-40-40H426zM276 316c22 0 40-18 40-40V104c0-22-18-40-40-40H104c-22 0-40 18-40 40v172c0 22 18 40 40 40h172z" p-id="1496"></path></svg>