<?xml version="1.0" standalone="no"?><!DOCTYPE svg PUBLIC "-//W3C//DTD SVG 1.1//EN" "http://www.w3.org/Graphics/SVG/1.1/DTD/svg11.dtd"><svg t="1690250672563" class="icon" viewBox="0 0 1054 1024" version="1.1" xmlns="http://www.w3.org/2000/svg" p-id="1177" xmlns:xlink="http://www.w3.org/1999/xlink" width="205.859375" height="200"></path><path d="M803.729192 898.666816H235.64697a235.7348 235.7348 0 0 1 0-471.38177h568.082222a235.7348 235.7348 0 0 1 0 471.38177z m-568.082222-421.582354a185.935384 185.935384 0 0 0 0 371.782938h568.082222a185.935384 185.935384 0 0 0 0-371.782938z" p-id="1179"></path><path d="M361.682528 640.711113H167.754645a24.943623 24.943623 0 0 1 0-49.799416h193.927883a24.943623 24.943623 0 0 1 0 49.799416zM139.473496 1021.540506a24.855793 24.855793 0 0 1-18.444228-41.543428l111.016686-122.96152a24.943623 24.943623 0 0 1 36.976286 33.4631L158.093383 1013.372348a24.767963 24.767963 0 0 1-18.619887 8.168158zM905.172446 1023.911907a24.767963 24.767963 0 0 1-18.444228-8.168158l-111.104516-122.96152a24.943623 24.943623 0 0 1 36.976286-33.37527l111.016686 122.96152a24.855793 24.855793 0 0 1-18.444228 41.631258zM768.158181 299.932043a24.592304 24.592304 0 0 1-17.565931-7.289861 326.550665 326.550665 0 0 0-461.632678 0 24.943623 24.943623 0 0 1-35.131863-35.131863 376.350081 376.350081 0 0 1 532.072063 0 24.855793 24.855793 0 0 1 0 35.131863 24.504474 24.504474 0 0 1-17.741591 7.289861z" p-id="1180"></path><path d="M176.537611 183.03077a24.855793 24.855793 0 0 1-16.599805-43.914829 552.009395 552.009395 0 0 1 724.682501-7.026373A24.943623 24.943623 0 0 1 851.947674 170.295469a502.03432 502.03432 0 0 0-658.722428 6.499395 24.680134 24.680134 0 0 1-16.687635 6.235906z" p-id="1181"></path></svg>