<svg t="1692689761179" class="icon" viewBox="0 0 1024 1024" version="1.1" xmlns="http://www.w3.org/2000/svg" p-id="6243" width="200" height="200"><path d="M635.172 95.834c-1.998 1.999-3.996 3.999-5.996 5.997l-16.061 16.061-23.229 23.23-27.507 27.506-28.888 28.889-27.376 27.376-22.969 22.97-15.67 15.67c-2.473 2.473-5.002 4.904-7.388 7.462-13.211 14.175-21.229 32.737-22.46 52.078-1.213 19.078 4.198 38.318 15.289 53.899a84.425 84.425 0 0 0 9.07 10.72l31.855 31.869 182.6-182.397 109.26 109.485-182.384 182.374 20.919 20.92 10.193 10.193c5.181 5.182 10.847 9.786 17.141 13.558 16.325 9.776 35.837 13.714 54.68 11.066 17.979-2.523 34.807-11.007 47.594-23.882l5.997-5.996c5.354-5.354 10.706-10.708 16.061-16.061l23.229-23.23a713271.6 713271.6 0 0 0 27.505-27.506l28.891-28.889c9.124-9.126 18.251-18.25 27.375-27.376l22.971-22.97 15.669-15.67c2.472-2.472 4.996-4.904 7.396-7.445 13.269-14.051 21.348-32.522 22.611-51.809 1.252-19.079-4.176-38.311-15.231-53.911a85.416 85.416 0 0 0-9.286-10.995c-1.999-1.999-3.997-3.998-5.998-5.997-5.354-5.353-10.705-10.707-16.061-16.061l-23.229-23.23-27.505-27.506-28.891-28.889-27.374-27.376c-7.656-7.657-15.314-15.313-22.972-22.97l-15.669-15.67c-2.567-2.567-5.091-5.197-7.752-7.669-16.305-15.139-38.344-23.235-60.571-22.292-20.912 0.891-40.991 9.736-55.839 24.474M270.406 460.605l-5.99 5.997c-5.348 5.354-10.696 10.711-16.044 16.064l-23.208 23.239-27.484 27.52a787376.15 787376.15 0 0 0-28.871 28.908l-27.368 27.402-22.978 23.009-15.697 15.715c-2.415 2.419-4.882 4.802-7.231 7.287-13.289 14.056-21.379 32.548-22.674 51.85-1.28 19.061 4.081 38.305 15.116 53.905a84.198 84.198 0 0 0 9.252 10.961l5.99 5.998 16.043 16.064 23.208 23.236c9.162 9.172 18.323 18.348 27.484 27.521 9.624 9.636 19.248 19.271 28.871 28.908l27.369 27.403 22.977 23.007 15.697 15.719c2.417 2.419 4.792 4.895 7.293 7.229 14.189 13.233 32.776 21.258 52.139 22.518 19.101 1.241 38.388-4.114 54.027-15.168a84.46 84.46 0 0 0 10.748-9.034l5.984-5.984 16.032-16.032 23.197-23.196 27.479-27.479c9.625-9.626 19.25-19.251 28.877-28.875l27.392-27.392 23.022-23.024 15.772-15.771c2.31-2.31 4.662-4.584 6.913-6.949 13.354-14.033 21.499-32.532 22.885-51.852 1.37-19.068-3.854-38.374-14.785-54.073a84.293 84.293 0 0 0-9.367-11.228l-32.069-31.851L348.02 784.541 238.536 675.068 420.932 492.47c-6.974-6.975-13.947-13.952-20.922-20.927l-10.196-10.199c-5.894-5.896-12.449-11.012-19.774-15.02-19.235-10.525-42.329-13.024-63.399-7.006-13.644 3.901-26.169 11.292-36.235 21.287" fill="#0071BC" p-id="6244"></path><path d="M876.584 751.132c11.711 11.711 11.761 30.69 0.024 42.428-11.712 11.711-30.691 11.712-42.404 0.05l-0.025 0.025-113.25-113.25 0.025-0.025-0.051-0.051c-11.711-11.711-11.786-30.717-0.024-42.479 11.737-11.737 30.742-11.66 42.453 0.051l0.504 0.504 112.24 112.24 0.508 0.507M791.677 836.039c11.711 11.711 11.736 30.715-0.025 42.477-11.685 11.686-30.69 11.712-42.378 0.024l-0.025 0.026-113.25-113.251 0.025-0.025-0.051-0.051c-11.711-11.711-11.736-30.767-0.05-42.453 11.761-11.761 30.792-11.71 42.503 0.001l0.504 0.504 112.24 112.24 0.507 0.508" fill="#00A0E9" p-id="6245"></path></svg>