<?xml version="1.0" standalone="no"?><!DOCTYPE svg PUBLIC "-//W3C//DTD SVG 1.1//EN" "http://www.w3.org/Graphics/SVG/1.1/DTD/svg11.dtd"><svg t="1690612382669" class="icon" viewBox="0 0 1024 1024" version="1.1" xmlns="http://www.w3.org/2000/svg" p-id="37546" xmlns:xlink="http://www.w3.org/1999/xlink" width="200" height="200"><path d="M439.6 177.3h145.7c21.8 0 39.5-17.7 39.5-39.5s-17.7-39.5-39.5-39.5H439.6c-21.8 0-39.5 17.7-39.5 39.5s17.7 39.5 39.5 39.5z" p-id="37547" fill="#ffffff"></path><path d="M848.5 137.7H681.7c0 43.7-35.4 79-79 79H422.3c-43.7 0-79-35.4-79-79H176.5c-21.8 0-39.5 17.7-39.5 39.5v592.9c0 87.3 70.8 158.1 158.1 158.1h434.8c87.3 0 158.1-70.8 158.1-158.1V177.3c0-21.9-17.7-39.6-39.5-39.6zM393.9 414.4H631v39.5H393.9v-39.5z m316.2 316.2H314.9v-39.5h395.2v39.5z m0-138.3H314.9v-39.5h395.2v39.5z" p-id="37548" fill="#ffffff"></path></svg>