<?xml version="1.0" standalone="no"?><!DOCTYPE svg PUBLIC "-//W3C//DTD SVG 1.1//EN" "http://www.w3.org/Graphics/SVG/1.1/DTD/svg11.dtd"><svg t="1690439676559" class="icon" viewBox="0 0 1025 1024" version="1.1" xmlns="http://www.w3.org/2000/svg" p-id="31526" xmlns:xlink="http://www.w3.org/1999/xlink" width="200.1953125" height="200"><path d="M672 83.2c-6.4 19.2 12.8 38.4 32 44.8 19.2 6.4 38.4-6.4 44.8-32 6.4-19.2-6.4-38.4-32-44.8-19.2-6.4-38.4 6.4-44.8 32z m-160 6.4c19.2 6.4 38.4-6.4 44.8-32 6.4-19.2-6.4-38.4-32-44.8-19.2-6.4-38.4 6.4-44.8 32 0 19.2 12.8 38.4 32 44.8z m435.2 396.8c-6.4 19.2 6.4 38.4 32 44.8 19.2 6.4 38.4-6.4 44.8-32 6.4-19.2-6.4-38.4-32-44.8-19.2 0-38.4 12.8-44.8 32zM806.4 185.6c-6.4 19.2 6.4 38.4 32 44.8 19.2 6.4 38.4-6.4 44.8-32 6.4-19.2-6.4-38.4-32-44.8-19.2 0-38.4 12.8-44.8 32z m96 134.4c-6.4 19.2 12.8 38.4 32 44.8 19.2 6.4 44.8-6.4 44.8-32 6.4-19.2-12.8-38.4-32-44.8-19.2 0-44.8 12.8-44.8 32zM403.2 25.6C211.2 64 51.2 211.2 12.8 416c-57.6 268.8 121.6 531.2 396.8 588.8 275.2 57.6 537.6-115.2 595.2-384L934.4 608c-44.8 230.4-275.2 384-512 332.8C185.6 896 32 665.6 76.8 435.2c32-166.4 160-288 313.6-326.4l12.8-83.2z" p-id="31527"></path><path d="M716.8 486.4L435.2 320c-12.8-6.4-25.6-6.4-32 0-12.8 6.4-19.2 19.2-19.2 25.6V672c0 12.8 6.4 19.2 12.8 25.6 12.8 6.4 12.8 6.4 19.2 6.4 6.4 0 12.8 0 12.8-6.4l281.6-166.4c12.8-6.4 12.8-12.8 12.8-25.6 6.4-6.4 0-12.8-6.4-19.2z" p-id="31528"></path></svg>