<?xml version="1.0" standalone="no"?><!DOCTYPE svg PUBLIC "-//W3C//DTD SVG 1.1//EN" "http://www.w3.org/Graphics/SVG/1.1/DTD/svg11.dtd"><svg t="1690364311778" class="icon" viewBox="0 0 1024 1024" version="1.1" xmlns="http://www.w3.org/2000/svg" p-id="20299" xmlns:xlink="http://www.w3.org/1999/xlink" width="200" height="200"><path d="M816 992v-144a32 32 0 0 1 32-32h144a32 32 0 0 1 32 32v144a32 32 0 0 1-32 32h-144a32 32 0 0 1-32-32z m-272 0v-144a32 32 0 0 1 32-32h144a32 32 0 0 1 32 32v144a32 32 0 0 1-32 32H576a32 32 0 0 1-32-32z m0-272V576a32 32 0 0 1 32-32h144a32 32 0 0 1 32 32v144a32 32 0 0 1-32 32H576a32 32 0 0 1-32-32zM544 448V304a32 32 0 0 1 32-32h144a32 32 0 0 1 32 32V448a32 32 0 0 1-32 32H576a32 32 0 0 1-32-32z m0-272V32A32 32 0 0 1 576 0h144a32 32 0 0 1 32 32v144a32 32 0 0 1-32 32H576a32 32 0 0 1-32-32zM272 992v-144a32 32 0 0 1 32-32H448a32 32 0 0 1 32 32v144a32 32 0 0 1-32 32H304a32 32 0 0 1-32-32z m0-272V576a32 32 0 0 1 32-32H448a32 32 0 0 1 32 32v144a32 32 0 0 1-32 32H304a32 32 0 0 1-32-32z m0-272V304a32 32 0 0 1 32-32H448a32 32 0 0 1 32 32V448a32 32 0 0 1-32 32H304a32 32 0 0 1-32-32z m0-272V32a32 32 0 0 1 32-32H448a32 32 0 0 1 32 32v144a32 32 0 0 1-32 32H304a32 32 0 0 1-32-32zM0 992v-144a32 32 0 0 1 32-32h144a32 32 0 0 1 32 32v144a32 32 0 0 1-32 32H32a32 32 0 0 1-32-32z m0-272V576a32 32 0 0 1 32-32h144a32 32 0 0 1 32 32v144a32 32 0 0 1-32 32H32a32 32 0 0 1-32-32zM0 448V304a32 32 0 0 1 32-32h144a32 32 0 0 1 32 32V448a32 32 0 0 1-32 32H32A32 32 0 0 1 0 448z m0-272V32A32 32 0 0 1 32 0h144a32 32 0 0 1 32 32v144a32 32 0 0 1-32 32H32a32 32 0 0 1-32-32z m816 544V576a32 32 0 0 1 32-32h144a32 32 0 0 1 32 32v144a32 32 0 0 1-32 32h-144a32 32 0 0 1-32-32z m0-272V304a32 32 0 0 1 32-32h144a32 32 0 0 1 32 32V448a32 32 0 0 1-32 32h-144a32 32 0 0 1-32-32z m0-272V32a32 32 0 0 1 32-32h144a32 32 0 0 1 32 32v144a32 32 0 0 1-32 32h-144a32 32 0 0 1-32-32z" fill="" p-id="20300"></path></svg>