<?xml version="1.0" standalone="no"?><!DOCTYPE svg PUBLIC "-//W3C//DTD SVG 1.1//EN" "http://www.w3.org/Graphics/SVG/1.1/DTD/svg11.dtd"><svg t="1692944501750" class="icon" viewBox="0 0 1024 1024" version="1.1" xmlns="http://www.w3.org/2000/svg" p-id="10047" xmlns:xlink="http://www.w3.org/1999/xlink" width="200" height="200"><path d="M687.786667 249.173333c0 20.48 18.773333 37.546667 39.253333 35.84 20.48 0 37.546667-17.066667 35.84-39.253333 0-20.48-17.066667-37.546667-37.546667-37.546667-10.24 0-20.48 5.12-27.306666 11.946667-6.826667 8.533333-11.946667 18.773333-10.24 29.013333z m0 124.586667c0 20.48 17.066667 37.546667 37.546666 37.546667s37.546667-17.066667 37.546667-37.546667c0-20.48-17.066667-37.546667-37.546667-37.546667-10.24 0-20.48 3.413333-27.306666 10.24-6.826667 6.826667-10.24 17.066667-10.24 27.306667z m75.093333 126.293333c-1.706667 18.773333-18.773333 34.133333-37.546667 34.133334s-35.84-13.653333-37.546666-34.133334c1.706667-18.773333 18.773333-34.133333 37.546666-34.133333s34.133333 15.36 37.546667 34.133333zM366.933333 285.013333h238.933334c18.773333-1.706667 32.426667-18.773333 32.426666-37.546666 1.706667-8.533333-1.706667-18.773333-8.533333-25.6-6.826667-6.826667-15.36-11.946667-23.893333-11.946667h-238.933334c-18.773333 1.706667-32.426667 18.773333-32.426666 37.546667-1.706667 8.533333 1.706667 18.773333 8.533333 25.6 6.826667 6.826667 15.36 11.946667 23.893333 11.946666z m0 126.293334h238.933334c18.773333-1.706667 32.426667-18.773333 32.426666-37.546667 1.706667-18.773333-11.946667-35.84-32.426666-37.546667h-238.933334c-18.773333 1.706667-32.426667 18.773333-32.426666 37.546667s13.653333 35.84 32.426666 37.546667z m0 126.293333h238.933334c18.773333-1.706667 32.426667-18.773333 32.426666-37.546667 1.706667-18.773333-13.653333-35.84-32.426666-37.546666h-238.933334c-18.773333 1.706667-32.426667 18.773333-32.426666 37.546666s13.653333 34.133333 32.426666 37.546667z m395.946667 87.04c-1.706667 18.773333-18.773333 34.133333-37.546667 34.133333s-35.84-13.653333-37.546666-34.133333c-1.706667-13.653333 5.12-29.013333 17.066666-35.84 11.946667-8.533333 27.306667-8.533333 40.96 0 11.946667 6.826667 18.773333 22.186667 17.066667 35.84z m-395.946667 37.546667h238.933334c17.066667-3.413333 30.72-18.773333 30.72-37.546667s-13.653333-34.133333-30.72-37.546667h-238.933334c-17.066667 3.413333-30.72 18.773333-30.72 37.546667s13.653333 34.133333 30.72 37.546667z m0 0" fill="#ffffff" p-id="10048"></path><path d="M34.133333 221.866667c0-117.76 42.666667-162.133333 97.28-162.133334h660.48c54.613333 0 98.986667 44.373333 98.986667 98.986667v634.88H989.866667c0 148.48-54.613333 170.666667-121.173334 170.666667h-580.266666c-54.613333 0-98.986667-44.373333-98.986667-98.986667V221.866667H34.133333z m194.56 641.706666c0 32.426667 27.306667 59.733333 59.733334 59.733334 52.906667 0 80.213333-11.946667 80.213333-129.706667h481.28V158.72c0-32.426667-27.306667-59.733333-59.733333-59.733333H201.386667c18.773333 35.84 29.013333 76.8 25.6 117.76v646.826666z m0 0" fill="#ffffff" p-id="10049"></path></svg>