<?xml version="1.0" standalone="no"?><!DOCTYPE svg PUBLIC "-//W3C//DTD SVG 1.1//EN" "http://www.w3.org/Graphics/SVG/1.1/DTD/svg11.dtd"><svg t="1690439160651" class="icon" viewBox="0 0 1024 1024" version="1.1" xmlns="http://www.w3.org/2000/svg" p-id="27845" xmlns:xlink="http://www.w3.org/1999/xlink" width="200" height="200"><path d="M906.774289 456.150709l-168.306498 112.168207c0-34.0659-15.461511-64.230297-39.412404-84.785437 57.041417-34.3549 95.550695-96.273196 95.550695-167.692373 0-108.447329-87.892189-196.339519-196.411769-196.339518-108.447329 0-196.339519 87.892189-196.339519 196.339518 0 55.05454 22.758767 104.618077 59.245044 140.309603h-102.956326c26.87702-29.875397 43.675157-68.92655 43.675157-112.276582 0-92.985818-75.356805-168.306498-168.306498-168.306498-92.949693 0-168.306498 75.356805-168.306498 168.306498 0 50.791787 22.939392 95.73132 58.450293 126.582093-34.680025 19.037889-58.450293 55.524166-58.450293 97.862696v224.44479c0 61.918295 50.286037 112.168207 112.168207 112.168207h448.889579c61.918295 0 112.168207-50.249912 112.168207-112.168207v-28.105271L906.738164 904.931913c30.959148 0 56.138291-25.106893 56.138291-56.138291v-336.649122c0.036125-30.923023-25.143018-55.993791-56.102166-55.993791zM121.343964 343.874127c0-61.918295 50.177662-112.168207 112.168207-112.168207s112.168207 50.249912 112.168207 112.168207c0 61.990545-50.177662 112.276582-112.168207 112.276582s-112.168207-50.286037-112.168207-112.276582z m560.985536 448.889579c0 30.959148-25.070768 56.029916-56.029916 56.029916H177.37388c-30.959148 0-56.029916-25.106893-56.029916-56.029916v-224.44479c0-30.959148 25.070768-56.138291 56.029916-56.138291h448.889579c30.959148 0 56.029916 25.179143 56.029916 56.138291v224.44479z m-84.171312-336.360122c-77.560432 0-140.562478-62.893671-140.562478-140.562478 0-77.668807 63.002046-140.562478 140.562478-140.562478 77.668807 0 140.634728 62.893671 140.634728 140.562478 0.036125 77.668807-62.965921 140.562478-140.634728 140.562478z m308.616101 392.426163l-168.306498-140.201228v-84.135187l168.306498-112.276582v336.612997z" fill="" p-id="27846"></path></svg>