<?xml version="1.0" standalone="no"?><!DOCTYPE svg PUBLIC "-//W3C//DTD SVG 1.1//EN" "http://www.w3.org/Graphics/SVG/1.1/DTD/svg11.dtd"><svg t="1698108807687" class="icon" viewBox="0 0 1450 1024" version="1.1" xmlns="http://www.w3.org/2000/svg" p-id="12800" xmlns:xlink="http://www.w3.org/1999/xlink" width="45.3125" height="32"><path d="M568.576 83.626667a67.669333 67.669333 0 0 1 128.426667 42.837333l-270.933334 811.52a67.669333 67.669333 0 0 1-128.512 0L26.709333 126.378667A67.669333 67.669333 0 1 1 155.050667 83.626667L361.813333 702.549333z m470.613333-46.250667c196.266667 0 338.773333 113.834667 338.773334 270.506667a67.669333 67.669333 0 0 1-135.509334 0c0-79.616-83.626667-135.253333-203.264-135.253334-75.861333 0-203.178667 17.578667-203.178666 135.253334 0 128.682667 169.301333 135.253333 203.178666 135.253333 202.581333 0 338.773333 108.714667 338.773334 270.506667 0 166.826667-129.877333 270.506667-338.773334 270.506666-196.266667 0-338.688-113.834667-338.688-270.506666a67.669333 67.669333 0 0 1 135.509334 0c0 79.616 83.541333 135.253333 203.178666 135.253333 75.946667 0 203.264-17.578667 203.264-135.253333 0-128.682667-169.301333-135.253333-203.264-135.253334-202.496 0-338.688-108.714667-338.688-270.506666 0-166.826667 129.792-270.506667 338.773334-270.506667z" fill="#409EFF" p-id="12801"></path></svg>